<?xml version="1.0" encoding="iso-8859-1"?>
<!-- Generator: Adobe Illustrator 16.0.0, SVG Export Plug-In . SVG Version: 6.00 Build 0)  -->
<!DOCTYPE svg PUBLIC "-//W3C//DTD SVG 1.1//EN" "http://www.w3.org/Graphics/SVG/1.1/DTD/svg11.dtd">
<svg version="1.1" id="Capa_1" xmlns="http://www.w3.org/2000/svg" xmlns:xlink="http://www.w3.org/1999/xlink" x="0px" y="0px"
	 width="338.942px" height="338.941px" viewBox="0 0 338.942 338.941" style="enable-background:new 0 0 338.942 338.941;"
	 xml:space="preserve">
<g>
	<g>
		<path d="M169.471,102.268c-15.045,0-27.294,12.244-27.294,27.295c0,15.054,12.25,27.301,27.294,27.301
			c15.06,0,27.298-12.247,27.298-27.301C196.769,114.512,184.537,102.268,169.471,102.268z"/>
		<path d="M169.471,0C103.646,0,50.083,53.557,50.083,119.394c0,61.11,97.485,195.468,108.591,210.582l4.095,5.561
			c1.549,2.132,4.059,3.405,6.701,3.405c2.645,0,5.155-1.273,6.705-3.394l4.092-5.572
			c11.121-15.114,108.591-149.472,108.591-210.582C288.858,53.557,235.307,0,169.471,0z M169.471,178.577
			c-27.024,0-49.011-21.984-49.011-49.015c0-27.03,21.987-49.014,49.011-49.014c27.022,0,49.011,21.983,49.011,49.014
			C218.482,156.593,196.493,178.577,169.471,178.577z"/>
	</g>
</g>
<g>
</g>
<g>
</g>
<g>
</g>
<g>
</g>
<g>
</g>
<g>
</g>
<g>
</g>
<g>
</g>
<g>
</g>
<g>
</g>
<g>
</g>
<g>
</g>
<g>
</g>
<g>
</g>
<g>
</g>
</svg>
